<?xml version="1.0" encoding="UTF-8"?>
<svg width="19px" height="19px" viewBox="0 0 19 19" version="1.1" xmlns="http://www.w3.org/2000/svg" xmlns:xlink="http://www.w3.org/1999/xlink">
    <title>Shape</title>
    <g id="Symbols" stroke="none" stroke-width="1" fill="none" fill-rule="evenodd">
        <g id="Top-Nav/Patients" transform="translate(-1564.000000, -36.000000)" fill="#fff" fill-rule="nonzero">
            <g id="Icon-Tasks" transform="translate(1433.000000, 25.000000)">
                <g id="Login" transform="translate(83.000000, 0.000000)">
                    <path d="M65.8571429,24 L65.8571429,23.5 C65.8571429,22.12 64.5771429,21 63,21 C61.4228571,21 60.1428571,22.12 60.1428571,23.5 L60.1428571,24 C59.5142857,24 59,24.45 59,25 L59,29 C59,29.55 59.5142857,30 60.1428571,30 L65.8571429,30 C66.4857143,30 67,29.55 67,29 L67,25 C67,24.45 66.4857143,24 65.8571429,24 M65,24 L62,24 L62,23.5 C62,22.67 62.67,22 63.5,22 C64.33,22 65,22.67 65,23.5 L65,24 M52,15 C52,12.79 53.79,11 56,11 C58.21,11 60,12.79 60,15 C60,17.21 58.21,19 56,19 C53.79,19 52,17.21 52,15 M57.5403296,27 L48,27 L48,25 C48,22.79 51.415438,21 55.6322637,21 C56.8438855,21 57.9791847,21.15 59,21.41 C58.7996531,21.82 58.6374675,22.25 58.5611448,22.71 C57.9410234,23.26 57.5403296,24.08 57.5403296,25 L57.5403296,27 Z" id="Shape"></path>
                </g>
            </g>
        </g>
    </g>
</svg>