<?xml version="1.0" encoding="UTF-8"?>
<svg width="20px" height="20px" viewBox="0 0 20 20" version="1.1" xmlns="http://www.w3.org/2000/svg" xmlns:xlink="http://www.w3.org/1999/xlink">
    <title>Group 9</title>
    <defs>
        <filter id="filter-1">
            <feColorMatrix in="SourceGraphic" type="matrix" values="1 0 0 0 0
 0 1 0 0 0
 0 0 1 0 0
 0 0 0 1 0"></feColorMatrix>
        </filter>
        <polygon id="path-2" points="0.0415526316 0.105495221 14.1410263 0.105495221 14.1410263 13.0263158 0.0415526316 13.0263158"></polygon>
        <polygon id="path-4" points="0 0.0642631579 13.0108075 0.0642631579 13.0108075 12.835784 0 12.835784"></polygon>
    </defs>
    <g id="Symbols" stroke="none" stroke-width="1" fill="#35792a" fill-rule="evenodd">
        <g id="Top-Nav/Patients" fill="#35792a" transform="translate(-1470.000000, -37.000000)">
            <g id="Group-9" fill="#35792a" transform="translate(1433.000000, 25.000000)" filter="url(#filter-1)">
                <g transform="translate(37.000000, 12.000000)" fill="#35792a">
                    <g id="Group-3" transform="translate(4.736842, 5.921053)" fill="#35792a">
                        <mask id="mask-3" fill="white">
                            <use xlink:href="#path-2"></use>
                        </mask>
                        <g id="Clip-2" fill="#35792a"></g>
                        <path d="M4.30707895,13.0263882 C6.49339474,13.0263882 8.51286842,12.3719364 10.1460263,11.2656645 L8.68944737,9.93070833 C6.58786842,11.4716732 4.15918421,12.2749627 1.93602632,12.2749627 C1.30181579,12.2749627 0.684710526,12.2083838 0.0965526316,12.0761908 C0.0918157895,12.0745022 0.0868157895,12.0735373 0.0815526316,12.0735373 C0.0610263158,12.0735373 0.0415526316,12.0892171 0.0415526316,12.1109276 C0.0415526316,12.1268487 0.0512894737,12.1396338 0.0641842105,12.1456645 C1.34892105,12.7098969 2.78786842,13.0263882 4.30707895,13.0263882 M10.7652368,8.02669518 L12.2215526,9.36213377 C13.4276053,7.86555482 14.1410263,6.01557675 14.1410263,4.01217763 C14.1410263,2.62053289 13.7965526,1.30246272 13.1820789,0.125993421 C13.1755,0.115620614 13.1633947,0.107660088 13.1499737,0.105730263 C13.1294474,0.103559211 13.1076053,0.116585526 13.1044474,0.138296053 C13.1033947,0.144085526 13.1039211,0.150116228 13.1057632,0.155423246 C13.7531316,2.583625 12.9233947,5.55241886 10.7652368,8.02669518" id="Fill-1" fill="#35792a" mask="url(#mask-3)"></path>
                    </g>
                    <path d="M14.4175786,4.53106913 C15.4771988,5.5899365 15.4534474,7.13214989 15.3446505,7.95662125 C15.1773689,9.2266493 14.6055469,10.54468 13.7331287,11.7156387 L9.70177032,11.715128 L11.7191096,13.7309848 C10.3019409,14.7878095 8.68275733,15.3947368 7.19663287,15.3947368 C6.42586064,15.3947368 5.33789189,15.2249402 4.52932168,14.4170655 C3.4699568,13.3571768 3.49421901,11.8154741 3.6025051,10.9907474 C3.82367434,9.31141996 4.75176787,7.5473219 6.1492714,6.14988252 C7.77535053,4.52366447 9.87952296,3.55263158 11.7505228,3.55263158 C12.0684855,3.55263158 13.435342,3.5490571 14.4175786,4.53106913" id="Fill-4" fill="#35792a"></path>
                    <g id="Group-8" fill="#35792a">
                        <mask id="mask-5" fill="white">
                            <use xlink:href="#path-4"></use>
                        </mask>
                        <g id="Clip-7" fill="#35792a"></g>
                        <path d="M0.823926763,12.814614 C0.834495283,12.8348772 0.858090119,12.8404254 0.875048908,12.8319825 C0.891024578,12.8240219 0.90085576,12.8052061 0.89520283,12.7868728 C0.257650695,10.0361491 1.36587066,6.61915351 4.02225596,4.01196053 C6.18831107,1.88529386 8.90368347,0.769131579 11.3518935,0.769131579 C11.9071095,0.769131579 12.4473329,0.827991228 12.9649446,0.94402193 C12.9853443,0.946916667 13.0072187,0.933649123 13.0104139,0.910491228 C13.0131174,0.892640351 13.0015658,0.876960526 12.9858359,0.87020614 C11.8272311,0.352530702 10.5403294,0.0642631579 9.18411792,0.0642631579 C4.11196549,0.0642631579 -0.00017204568,4.10000877 -0.00017204568,9.07799123 C-0.00017204568,10.4110175 0.294763406,11.6762588 0.823926763,12.814614" id="Fill-6" fill="#35792a" mask="url(#mask-5)"></path>
                    </g>
                </g>
            </g>
        </g>
    </g>
</svg>